<?xml version="1.0" encoding="utf-8"?>
<!-- Generator: Adobe Illustrator 24.0.0, SVG Export Plug-In . SVG Version: 6.00 Build 0)  -->
<svg version="1.1" xmlns="http://www.w3.org/2000/svg" xmlns:xlink="http://www.w3.org/1999/xlink" x="0px" y="0px"
	 viewBox="0 0 256 256" style="enable-background:new 0 0 256 256;" xml:space="preserve">
<style type="text/css">
	.st0{fill:#F98FA6;}
	.st1{fill:#FC657E;}
	.st2{fill:#DAE6F1;}
	.st3{fill:#5290DB;}
	.st4{fill:#FCDD86;}
	.st5{fill:#F5C84C;}
	.st6{fill:#87D147;}
	.st7{fill:#70D6F9;}
	.st8{fill:#EDF4FC;}
	.st9{fill:#9BE5F9;}
	.st10{fill:#B2E26D;}
	.st11{fill:#F9C1A8;}
	.st12{fill:#414344;}
	.st13{fill:#E1FBFF;}
	.st14{fill:#FFE3EC;}
	.st15{fill:#FCBECF;}
	.st16{fill:#EF4460;}
	.st17{fill:#80C2F9;}
	.st18{fill:#3A70BF;}
	.st19{fill:#FCA265;}
	.st20{fill:#5B5D60;}
	.st21{fill:#818182;}
	.st22{fill:#C7D7E5;}
	.st23{fill:#F9D0B4;}
	.st24{fill:#AA6F59;}
	.st25{fill:#D1856D;}
	.st26{fill:#FCC29A;}
	.st27{fill:#29589F;}
	.st28{fill:#F7B386;}
	.st29{fill:#FC8C48;}
	.st30{fill:#FFF0CC;}
	.st31{fill:#57AF12;}
	.st32{fill:#3CAADC;}
	.st33{fill:#EDB311;}
	.st34{fill:#231F20;}
</style>
<g id="Layer_1">
</g>
<g id="Layer_2">
</g>
<g id="Layer_3">
</g>
<g id="Layer_4">
</g>
<g id="Layer_5">
</g>
<g id="Layer_6">
</g>
<g id="Layer_7">
</g>
<g id="Layer_8">
</g>
<g id="Layer_9">
</g>
<g id="Layer_10">
	<g>
		<g>
			<g>
				<path class="st6" d="M129.213,111.344c-8.241-4.591-13.113-13.524-13.113-22.958V47.453c-0.053,0.001-0.104,0.008-0.157,0.008
					H86.532c-0.053,0-0.104-0.007-0.157-0.008v40.933c0,9.434-4.872,18.366-13.113,22.958c-8.313,4.631-13.458,13.398-13.458,22.904
					v101.786c0,9.647,7.82,17.467,17.467,17.467h47.933c9.647,0,17.467-7.82,17.467-17.467V134.247
					C142.671,124.742,137.526,115.975,129.213,111.344z"/>
			</g>
		</g>
		<g>
			<g>
				<path class="st4" d="M115.943,9.729H86.532c-3.609,0-6.535,2.926-6.535,6.535v24.663c0,3.609,2.926,6.535,6.535,6.535h29.411
					c3.609,0,6.535-2.926,6.535-6.535V16.263C122.478,12.654,119.552,9.729,115.943,9.729z"/>
			</g>
		</g>
		<g>
			<g>
				<path class="st10" d="M115.943,47.461H86.532c-0.053,0-0.104-0.007-0.157-0.008v16.633c3.453,4.42,8.819,7.273,14.862,7.273
					c6.043,0,11.41-2.853,14.862-7.273V47.453C116.047,47.454,115.996,47.461,115.943,47.461z"/>
			</g>
		</g>
		<g>
			<g>
				<path class="st5" d="M79.997,36.106v4.82c0,3.609,2.926,6.535,6.535,6.535h29.411c3.609,0,6.535-2.926,6.535-6.535v-4.82H79.997
					z"/>
			</g>
		</g>
		<g>
			<g>
				<rect x="59.803" y="144.687" class="st1" width="82.868" height="80"/>
			</g>
		</g>
		<g>
			<g>
				<path class="st0" d="M101.237,157.535c-15.78,0-30.211,5.669-41.434,15.058v52.093h82.868v-52.093
					C131.449,163.205,117.017,157.535,101.237,157.535z"/>
			</g>
		</g>
		<g>
			<g>
				<path class="st8" d="M218.973,174.164H162.19c-3.441,0-6.167,2.904-5.951,6.338l4.011,63.647
					c0.331,5.257,4.692,9.351,9.959,9.351h40.745c5.268,0,9.628-4.094,9.959-9.351l4.011-63.647
					C225.14,177.068,222.414,174.164,218.973,174.164z"/>
			</g>
		</g>
		<g>
			<g>
				<path class="st5" d="M160.02,240.5l0.23,3.649c0.331,5.257,4.692,9.351,9.959,9.351h40.745c5.268,0,9.628-4.094,9.959-9.351
					l0.23-3.649H160.02z"/>
			</g>
		</g>
		<g>
			<g>
				<path class="st4" d="M207.778,197.871c-8.6,0-8.6,6-17.2,6c-8.599,0-8.599-6-17.198-6c-8.058,0-8.565,5.269-15.674,5.932
					l2.313,36.697h61.123l2.313-36.697C216.345,203.141,215.838,197.871,207.778,197.871z"/>
			</g>
		</g>
		<g>
			<g>
				<path class="st5" d="M207.563,220.289l-5.759-3.6c-1.448-0.905-3.373-0.461-4.278,0.987l-3.6,5.759
					c-0.905,1.448-0.461,3.373,0.987,4.278l5.759,3.6c1.448,0.905,3.373,0.461,4.278-0.987l3.6-5.759
					C209.454,223.119,209.01,221.194,207.563,220.289z"/>
			</g>
		</g>
		<g>
			<g>
				<circle class="st5" cx="181.237" cy="218" r="4.5"/>
			</g>
		</g>
		<g>
			<g>
				<path class="st5" d="M46.923,176.854c-4.477-0.943-7.939-4.497-8.691-8.922c-0.038-0.222-0.347-0.229-0.395-0.009
					c-0.958,4.385-4.583,7.774-9.099,8.506c-0.227,0.037-0.234,0.339-0.009,0.387c4.477,0.943,7.939,4.497,8.691,8.922
					c0.038,0.222,0.347,0.229,0.395,0.009c0.958-4.385,4.583-7.774,9.099-8.506C47.141,177.203,47.148,176.901,46.923,176.854z"/>
			</g>
		</g>
		<g>
			<g>
				<path class="st1" d="M166.035,144.898c-3.022-0.636-5.359-3.036-5.866-6.022c-0.026-0.15-0.234-0.155-0.266-0.006
					c-0.647,2.96-3.094,5.247-6.142,5.741c-0.153,0.025-0.158,0.229-0.006,0.261c3.022,0.636,5.359,3.036,5.866,6.022
					c0.026,0.15,0.234,0.155,0.266,0.006c0.646-2.96,3.093-5.247,6.141-5.741C166.182,145.134,166.187,144.93,166.035,144.898z"/>
			</g>
		</g>
		<g>
			<g>
				<path class="st7" d="M153.935,23.79l-2.328-0.055l0.055-2.329c0.041-1.743-1.339-3.19-3.083-3.23
					c-1.744-0.041-3.19,1.339-3.23,3.083l-0.055,2.329l-2.329-0.055c-1.743-0.041-3.19,1.339-3.23,3.083
					c-0.041,1.744,1.339,3.19,3.083,3.23l2.329,0.055l-0.055,2.329c-0.041,1.743,1.339,3.19,3.083,3.23
					c1.743,0.041,3.189-1.339,3.23-3.083l0.055-2.329l2.329,0.055c1.743,0.041,3.189-1.339,3.23-3.083S155.679,23.831,153.935,23.79
					z"/>
			</g>
		</g>
		<g>
			<g>
				<path class="st6" d="M132.643,0.001c-1.865-0.044-3.412,1.433-3.455,3.297c-0.044,1.865,1.432,3.412,3.297,3.455
					c1.865,0.044,3.412-1.433,3.455-3.297S134.508,0.045,132.643,0.001z"/>
			</g>
		</g>
		<g>
			<g>
				<path class="st5" d="M185.643,156.001c-1.865-0.044-3.412,1.433-3.455,3.297c-0.044,1.865,1.432,3.412,3.297,3.455
					c1.865,0.044,3.412-1.433,3.455-3.297S187.508,156.045,185.643,156.001z"/>
			</g>
		</g>
		<g>
			<g>
				<path class="st7" d="M46.643,196.001c-1.865-0.044-3.412,1.433-3.455,3.297c-0.044,1.865,1.432,3.412,3.297,3.455
					c1.865,0.044,3.412-1.433,3.455-3.297S48.508,196.045,46.643,196.001z"/>
			</g>
		</g>
		<g>
			<g>
				<path d="M130.43,109.16c-7.297-4.065-11.83-12.025-11.83-20.773V48.25c0-1.381-1.119-2.5-2.5-2.5s-2.5,1.119-2.5,2.5v40.136
					c0,10.56,5.517,20.194,14.396,25.142c7.511,4.184,12.176,12.124,12.176,20.719v101.786c0,8.253-6.715,14.967-14.968,14.967
					H77.271c-8.253,0-14.967-6.714-14.967-14.967V134.247c0-8.596,4.665-16.535,12.175-20.719
					c8.88-4.948,14.396-14.582,14.396-25.142V48.438c0-1.381-1.119-2.5-2.5-2.5s-2.5,1.119-2.5,2.5v39.948
					c0,8.748-4.533,16.708-11.83,20.773c-9.093,5.066-14.741,14.679-14.741,25.087v101.786c0,11.01,8.957,19.967,19.967,19.967
					h47.934c11.011,0,19.968-8.958,19.968-19.967V134.247C145.172,123.839,139.523,114.226,130.43,109.16z"/>
			</g>
		</g>
		<g>
			<g>
				<path d="M118.07,130.187c-4.087-5.232-10.223-8.233-16.833-8.233c-6.609,0-12.744,3.001-16.832,8.233
					c-0.851,1.088-0.657,2.659,0.431,3.509s2.66,0.656,3.509-0.431c3.134-4.011,7.833-6.312,12.893-6.312
					c5.061,0,9.76,2.3,12.892,6.312c0.493,0.631,1.229,0.961,1.973,0.961c0.538,0,1.08-0.173,1.537-0.53
					C118.727,132.846,118.92,131.275,118.07,130.187z"/>
			</g>
		</g>
		<g>
			<g>
				<path d="M111.576,198.355H90.898c-1.381,0-2.5,1.119-2.5,2.5s1.119,2.5,2.5,2.5h20.678c1.381,0,2.5-1.119,2.5-2.5
					S112.957,198.355,111.576,198.355z"/>
			</g>
		</g>
		<g>
			<g>
				<path d="M108.396,208.726H94.079c-1.381,0-2.5,1.119-2.5,2.5s1.119,2.5,2.5,2.5h14.316c1.381,0,2.5-1.119,2.5-2.5
					S109.776,208.726,108.396,208.726z"/>
			</g>
		</g>
		<g>
			<g>
				<g>
					<path d="M225.143,174.334c-1.593-1.697-3.842-2.67-6.17-2.67h-56.783c-2.327,0-4.575,0.973-6.169,2.669
						c-1.593,1.697-2.423,4.002-2.277,6.326l4.012,63.646c0.413,6.558,5.884,11.694,12.454,11.694h40.744
						c6.57,0,12.041-5.137,12.455-11.694l4.011-63.646C227.565,178.337,226.736,176.031,225.143,174.334z M218.418,243.991
						c-0.248,3.931-3.527,7.009-7.465,7.009h-40.744c-3.938,0-7.217-3.079-7.464-7.009l-4.012-63.646
						c-0.061-0.965,0.271-1.884,0.933-2.589c0.661-0.705,1.558-1.092,2.523-1.092h56.783c0.967,0,1.863,0.388,2.525,1.093
						c0.661,0.704,0.991,1.624,0.931,2.588L218.418,243.991z"/>
				</g>
			</g>
		</g>
		<g>
			<g>
				<path d="M220.333,238h-59.458c-1.381,0-2.5,1.119-2.5,2.5s1.119,2.5,2.5,2.5h59.458c1.381,0,2.5-1.119,2.5-2.5
					S221.714,238,220.333,238z"/>
			</g>
		</g>
		<g>
			<g>
				<path d="M223.04,201.235c-2.259-0.341-3.637-1.302-5.231-2.414c-2.317-1.617-4.944-3.45-10.03-3.45s-7.712,1.833-10.03,3.45
					c-2.042,1.425-3.655,2.55-7.17,2.55c-3.514,0-5.126-1.125-7.168-2.55c-2.317-1.617-4.944-3.45-10.029-3.45
					s-7.711,1.833-10.028,3.449c-1.585,1.105-2.953,2.06-5.184,2.407c-1.364,0.212-2.298,1.49-2.086,2.854
					c0.213,1.365,1.489,2.3,2.855,2.086c3.373-0.525,5.446-1.971,7.274-3.247c2.042-1.424,3.655-2.55,7.168-2.55
					c3.514,0,5.126,1.125,7.168,2.55c2.317,1.617,4.944,3.45,10.029,3.45c5.086,0,7.713-1.833,10.031-3.45
					c2.042-1.425,3.655-2.55,7.169-2.55s5.127,1.125,7.17,2.55c1.842,1.285,3.931,2.742,7.346,3.258
					c1.361,0.207,2.64-0.734,2.845-2.099C225.345,202.715,224.405,201.441,223.04,201.235z"/>
			</g>
		</g>
		<g>
			<g>
				<g>
					<path d="M208.889,218.169C208.888,218.169,208.888,218.169,208.889,218.169l-5.759-3.6c-1.267-0.792-2.767-1.043-4.229-0.706
						c-1.461,0.337-2.702,1.22-3.494,2.486l-3.601,5.758c-1.638,2.62-0.839,6.084,1.781,7.723l5.758,3.6
						c0.899,0.562,1.917,0.852,2.955,0.852c0.424,0,0.852-0.048,1.275-0.146c1.461-0.337,2.702-1.22,3.494-2.486l3.6-5.758
						C212.307,223.272,211.508,219.808,208.889,218.169z M206.429,223.241l-3.6,5.758c-0.112,0.181-0.285,0.244-0.377,0.265
						c-0.094,0.022-0.275,0.04-0.456-0.073l-5.758-3.6c-0.278-0.174-0.366-0.555-0.192-0.833l3.601-5.758
						c0.112-0.181,0.284-0.244,0.377-0.265c0.036-0.008,0.085-0.016,0.143-0.016c0.091,0,0.201,0.02,0.313,0.089l5.759,3.6
						C206.515,222.583,206.603,222.963,206.429,223.241z"/>
				</g>
			</g>
		</g>
		<g>
			<g>
				<g>
					<path d="M181.237,211c-3.859,0-7,3.14-7,7s3.141,7,7,7s7-3.14,7-7S185.097,211,181.237,211z M181.237,220c-1.103,0-2-0.897-2-2
						s0.897-2,2-2s2,0.897,2,2S182.34,220,181.237,220z"/>
				</g>
			</g>
		</g>
		<g>
			<g>
				<g>
					<path d="M115.942,7.229h-29.41c-4.982,0-9.035,4.053-9.035,9.035v24.663c0,4.982,4.053,9.035,9.035,9.035h29.41
						c4.982,0,9.035-4.053,9.035-9.035V16.264C124.978,11.282,120.925,7.229,115.942,7.229z M119.978,40.926
						c0,2.225-1.811,4.035-4.035,4.035h-29.41c-2.225,0-4.035-1.81-4.035-4.035V16.264c0-2.225,1.811-4.035,4.035-4.035h29.41
						c2.225,0,4.035,1.81,4.035,4.035V40.926z"/>
				</g>
			</g>
		</g>
		<g>
			<g>
				<path d="M117.297,62.675c-1.06-0.886-2.634-0.747-3.522,0.311c-3.125,3.732-7.695,5.873-12.537,5.873
					c-4.864,0-9.447-2.157-12.574-5.917c-0.883-1.063-2.458-1.207-3.521-0.324c-1.062,0.883-1.206,2.459-0.323,3.521
					c4.079,4.906,10.063,7.72,16.418,7.72c6.325,0,12.292-2.792,16.371-7.662C118.494,65.139,118.355,63.562,117.297,62.675z"/>
			</g>
		</g>
		<g>
			<g>
				<path d="M121.667,33.606H80.792c-1.381,0-2.5,1.119-2.5,2.5s1.119,2.5,2.5,2.5h40.875c1.381,0,2.5-1.119,2.5-2.5
					S123.048,33.606,121.667,33.606z"/>
			</g>
		</g>
		<g>
			<g>
				<path d="M141.813,222.187H60.5c-1.381,0-2.5,1.119-2.5,2.5s1.119,2.5,2.5,2.5h81.313c1.381,0,2.5-1.119,2.5-2.5
					S143.194,222.187,141.813,222.187z"/>
			</g>
		</g>
		<g>
			<g>
				<path d="M141.875,142.187h-81.13c-1.381,0-2.5,1.119-2.5,2.5s1.119,2.5,2.5,2.5h81.13c1.381,0,2.5-1.119,2.5-2.5
					S143.256,142.187,141.875,142.187z"/>
			</g>
		</g>
		<g>
			<g>
				<path d="M143.847,170.321c-11.98-9.857-27.113-15.285-42.609-15.285c-15.464,0-30.008,5.131-42.061,14.838
					c-1.075,0.866-1.245,2.44-0.379,3.516c0.865,1.074,2.438,1.245,3.516,0.379c11.154-8.984,24.614-13.732,38.924-13.732
					c14.341,0,28.345,5.024,39.434,14.146c0.465,0.383,1.027,0.569,1.587,0.569c0.722,0,1.438-0.311,1.932-0.912
					C145.066,172.773,144.913,171.198,143.847,170.321z"/>
			</g>
		</g>
	</g>
</g>
<g id="Layer_11">
</g>
<g id="Layer_12">
</g>
<g id="Layer_13">
</g>
<g id="Layer_14">
</g>
<g id="Layer_15">
</g>
<g id="Layer_16">
</g>
<g id="Layer_17">
</g>
<g id="Layer_18">
</g>
<g id="Layer_19">
</g>
<g id="Layer_20">
</g>
<g id="Layer_21">
</g>
<g id="Layer_22">
</g>
<g id="Layer_23">
</g>
<g id="Layer_24">
</g>
<g id="Layer_25">
</g>
<g id="Layer_26">
</g>
<g id="Layer_27">
</g>
<g id="Layer_28">
</g>
<g id="Layer_29">
</g>
<g id="Layer_30">
</g>
<g id="Layer_31">
</g>
<g id="Layer_32">
</g>
<g id="Layer_33">
</g>
<g id="Layer_34">
</g>
<g id="Layer_35">
</g>
<g id="Layer_36">
</g>
<g id="Layer_37">
</g>
<g id="Layer_38">
</g>
<g id="Layer_39">
</g>
<g id="Layer_40">
</g>
<g id="Layer_41">
</g>
<g id="Layer_42">
</g>
<g id="Layer_43">
</g>
<g id="Layer_44">
</g>
<g id="Layer_45">
</g>
<g id="Layer_46">
</g>
<g id="Layer_47">
</g>
<g id="Layer_48">
</g>
<g id="Layer_49">
</g>
<g id="Layer_50">
</g>
<g id="Layer_51">
</g>
<g id="Layer_52">
</g>
<g id="Layer_53">
</g>
<g id="Layer_54">
</g>
<g id="Layer_55">
</g>
<g id="Layer_56">
</g>
<g id="Layer_57">
</g>
<g id="Layer_58">
</g>
<g id="Layer_59">
</g>
<g id="Layer_60">
</g>
<g id="Layer_61">
</g>
<g id="Layer_62">
</g>
<g id="Layer_63">
</g>
<g id="Layer_64">
</g>
<g id="Layer_65">
</g>
<g id="Layer_66">
</g>
<g id="Layer_67">
</g>
<g id="Layer_68">
</g>
<g id="Layer_69">
</g>
<g id="Layer_70">
</g>
<g id="Layer_71">
</g>
<g id="Layer_72">
</g>
<g id="Layer_73">
</g>
<g id="Layer_74">
</g>
<g id="Layer_75">
</g>
<g id="Layer_76">
</g>
<g id="Layer_77">
</g>
<g id="Layer_78">
</g>
<g id="Layer_79">
</g>
<g id="Layer_80">
</g>
<g id="Layer_81">
</g>
<g id="Layer_82">
</g>
<g id="Layer_83">
</g>
<g id="Layer_84">
</g>
<g id="Layer_85">
</g>
</svg>
